Coordinates
version=1
nRows=16
nColumns=32
inDegrees=yes

Units are S.I. units (second, meters, Newtons, ...)
If the header above contains a line with 'inDegrees', this indicates whether rotational values are in degrees (yes) or radians (no).

endheader
time	pelvis_tilt	pelvis_list	pelvis_rotation	pelvis_tx	pelvis_ty	pelvis_tz	hip_flexion_r	hip_adduction_r	hip_rotation_r	knee_angle_r	knee_adduction_r	med_cond_adduction_r	lat_cond_adduction_r	patella_r_constrained_knee_angle	ankle_angle_r	subtalar_angle_r	mtp_angle_r	hip_flexion_l	hip_adduction_l	hip_rotation_l	knee_angle_l	knee_adduction_l	med_cond_adduction_l	lat_cond_adduction_l	patella_l_constrained_knee_angle	ankle_angle_l	subtalar_angle_l	mtp_angle_l	lumbar_extension	lumbar_bending	lumbar_rotation
      0.81000000	    -11.94576514	     -7.48514443	     -4.49169611	      0.16191299	      0.85954938	     -1.19154368	     30.16820660	    -23.20240118	    -38.81114924	    -38.29625715	     -0.00000000	      0.00000000	     -0.00000000	     -0.66839578	     -1.61418454	     19.56002295	     -0.00000000	     32.41311584	    -41.53630258	    -35.79004880	    -37.53832941	      0.00000000	     -0.00000000	      0.00000000	     -0.65516744	     -1.35594396	     19.78999210	      0.00000000	    -21.05041929	      7.03779429	      0.10602119
      0.81500000	    -12.72869113	     -7.65866542	     -4.52557576	      0.16068279	      0.85560322	     -1.19153611	     31.51842930	    -23.41724798	    -38.77831802	    -39.46685211	     -0.00000000	      0.00000000	     -0.00000000	     -0.68882651	     -1.21714553	     19.55503237	     -0.00000000	     34.36703963	    -42.18547613	    -35.01210100	    -38.97985176	     -0.00000000	      0.00000000	     -0.00000000	     -0.68032676	     -0.95152580	     19.79021748	     -0.00000000	    -20.16308813	      7.32856940	      0.12592978
      0.82000000	    -13.47453352	     -7.81554503	     -4.55742028	      0.15949273	      0.85176957	     -1.19154059	     32.80928421	    -23.62647642	    -38.72500960	    -40.56100042	     -0.00000000	     -0.00000000	      0.00000000	     -0.70792301	     -0.82367063	     19.55196974	     -0.00000000	     36.24542505	    -42.76298175	    -34.20143853	    -40.32423773	      0.00000000	     -0.00000000	      0.00000000	     -0.70379072	     -0.56820764	     19.78993126	     -0.00000000	    -19.33010656	      7.54650229	     -0.06088117
      0.82500000	    -14.13395010	     -7.83739207	     -4.56513617	      0.15832902	      0.84810918	     -1.19155659	     34.04266064	    -24.00320693	    -38.65332870	    -41.67754616	     -0.00000000	     -0.00000000	      0.00000000	     -0.72741040	     -0.46531559	     19.55172947	     -0.00000000	     37.90916173	    -43.13042058	    -33.48223109	    -41.51277867	     -0.00000000	      0.00000000	     -0.00000000	     -0.72453467	     -0.20768918	     19.78903576	      0.00000000	    -18.58949643	      7.63051449	     -0.16841284
      0.83000000	    -14.76445124	     -7.88494646	     -4.57210554	      0.15716214	      0.84450752	     -1.19158388	     35.21833921	    -24.33534379	    -38.58245634	    -42.73109472	     -0.00000000	     -0.00000000	      0.00000000	     -0.74579830	     -0.13595759	     19.55035769	     -0.00000000	     39.53976808	    -43.49109067	    -32.73072036	    -42.64372362	      0.00000000	      0.00000000	     -0.00000000	     -0.74427338	      0.13534987	     19.78795579	      0.00000000	    -17.89346070	      7.72177954	     -0.32610928
      0.83500000	    -15.36490079	     -7.85206207	     -4.53878509	      0.15597953	      0.84094725	     -1.19169224	     36.37895490	    -24.78126946	    -38.50137397	    -43.80184335	      0.00000000	     -0.00000000	      0.00000000	     -0.76448638	      0.21096783	     19.55180175	     -0.00000000	     41.09623910	    -43.70071303	    -31.98090276	    -43.69887014	      0.00000000	     -0.00000000	      0.00000000	     -0.76268916	      0.50935933	     19.78651963	      0.00000000	    -17.22499650	      7.74448286	     -0.48948682
      0.84000000	    -15.93590418	     -7.95421575	     -4.54623214	      0.15483445	      0.83750642	     -1.19169568	     37.43687108	    -25.03058573	    -38.44930642	    -44.75001947	      0.00000000	      0.00000000	     -0.00000000	     -0.78103518	      0.47621238	     19.54702761	     -0.00000000	     42.65360277	    -44.06146292	    -31.18462086	    -44.72000463	     -0.00000000	      0.00000000	     -0.00000000	     -0.78051132	      0.76716377	     19.78480217	     -0.00000000	    -16.62572963	      7.89306257	     -0.58343043
      0.84500000	    -16.51150614	     -8.06579373	     -4.55107382	      0.15367753	      0.83399135	     -1.19173838	     38.48956748	    -25.26354956	    -38.37745546	    -45.68118021	      0.00000000	      0.00000000	     -0.00000000	     -0.79728700	      0.76854804	     19.54373434	      0.00000000	     44.24809119	    -44.41195315	    -30.34984480	    -45.75078481	      0.00000000	      0.00000000	     -0.00000000	     -0.79850183	      1.04815714	     19.78427748	     -0.00000000	    -16.01210214	      8.06948255	     -0.67440154
      0.85000000	    -17.11260577	     -8.15904256	     -4.49084450	      0.15245368	      0.83041531	     -1.19191093	     39.55449210	    -25.56910457	    -38.35257898	    -46.62142918	      0.00000000	     -0.00000000	      0.00000000	     -0.81369744	      1.04477501	     19.54102080	      0.00000000	     45.92264333	    -44.63973891	    -29.37336998	    -46.73147277	      0.00000000	      0.00000000	     -0.00000000	     -0.81561806	      1.34471413	     19.78258534	      0.00000000	    -15.36939175	      8.30319448	     -0.63681924
      0.85500000	    -18.01168379	     -7.35839425	     -4.40817510	      0.15088744	      0.82599631	     -1.19191832	     41.54775193	    -26.93004887	    -37.85834512	    -48.14775682	     -0.00000000	     -0.00000000	      0.00000000	     -0.84033688	      1.10981548	     19.56500238	     -0.00000000	     47.30619728	    -44.00182832	    -29.15200239	    -47.51422545	      0.00000000	      0.00000000	     -0.00000000	     -0.82927968	      1.66527285	     19.77211560	      0.00000000	    -14.23896156	      7.49500360	     -0.73277036
      0.86000000	    -18.27387314	     -8.28160844	     -4.41350139	      0.15003928	      0.82323301	     -1.19215148	     41.68056133	    -26.22428263	    -38.23450267	    -48.48899134	     -0.00000000	      0.00000000	     -0.00000000	     -0.84629255	      1.59610065	     19.53595330	      0.00000000	     49.12807394	    -45.04279378	    -27.60122959	    -48.63999349	      0.00000000	      0.00000000	     -0.00000000	     -0.84892803	      1.89982970	     19.77905100	      0.00000000	    -14.11672127	      8.58599348	     -0.81541120
      0.86500000	    -18.66523635	     -8.15432836	     -4.41676187	      0.14902805	      0.82012179	     -1.19209447	     42.62905765	    -26.67403166	    -38.01218232	    -49.40773804	      0.00000000	     -0.00000000	      0.00000000	     -0.86232770	      1.95594761	     19.53875060	      0.00000000	     50.17924401	    -45.11305790	    -27.14662059	    -49.42061711	     -0.00000000	      0.00000000	     -0.00000000	     -0.86255249	      2.21153341	     19.77809574	     -0.00000000	    -13.71557074	      8.40374871	     -1.02850940
      0.87000000	    -19.02125841	     -8.25032600	     -4.34968241	      0.14803362	      0.81708635	     -1.19232096	     43.35289043	    -26.95552640	    -38.02363094	    -50.16273274	      0.00000000	     -0.00000000	      0.00000000	     -0.87550485	      2.05978390	     19.53513827	     -0.00000000	     51.45018605	    -45.29504454	    -26.37123047	    -50.25105009	     -0.00000000	     -0.00000000	      0.00000000	     -0.87704628	      2.38452275	     19.77679737	     -0.00000000	    -13.37092261	      8.56288028	     -1.12509230
      0.87500000	    -19.43580848	     -8.26378148	     -4.29723727	      0.14701893	      0.81386427	     -1.19243509	     44.22131677	    -27.31362010	    -37.92622063	    -51.02021339	     -0.00000000	     -0.00000000	      0.00000000	     -0.89047071	      2.30791572	     19.53505814	     -0.00000000	     52.71881668	    -45.40115502	    -25.63738766	    -51.05045458	     -0.00000000	     -0.00000000	      0.00000000	     -0.89099852	      2.62260188	     19.77590468	      0.00000000	    -12.95587376	      8.62078217	     -1.21930522
      0.88000000	    -20.10768484	     -8.36407576	     -4.17243600	      0.14572284	      0.80992194	     -1.19278266	     45.33225886	    -27.68669389	    -37.92339356	    -51.93169617	      0.00000000	      0.00000000	     -0.00000000	     -0.90637908	      2.53975285	     19.53235684	      0.00000000	     54.58043511	    -45.45370095	    -24.49186556	    -51.98994297	      0.00000000	     -0.00000000	      0.00000000	     -0.90739568	      2.88685206	     19.77308045	     -0.00000000	    -12.19899662	      8.88190423	     -1.28446036
      0.88500000	    -20.54768610	     -8.38100880	     -4.07307582	      0.14467482	      0.80658362	     -1.19299009	     46.20412465	    -28.08464616	    -37.85835335	    -52.77152435	     -0.00000000	     -0.00000000	      0.00000000	     -0.92103685	      2.76867953	     19.53150133	      0.00000000	     55.92298289	    -45.48236129	    -23.68396977	    -52.77536647	      0.00000000	      0.00000000	     -0.00000000	     -0.92110391	      3.07959968	     19.77163193	     -0.00000000	    -11.73581297	      8.95019975	     -1.45596807
